<?xml version="1.0" encoding="UTF-8" standalone="no"?>
<!-- Created with Inkscape (http://www.inkscape.org/) -->

<svg
   width="32"
   height="32"
   viewBox="0 0 8.4666665 8.4666666"
   version="1.1"
   id="svg1"
   xml:space="preserve"
   inkscape:version="1.3 (0e150ed6c4, 2023-07-21)"
   sodipodi:docname="logo.svg"
   inkscape:export-filename="logo.png"
   inkscape:export-xdpi="96"
   inkscape:export-ydpi="96"
   xmlns:inkscape="http://www.inkscape.org/namespaces/inkscape"
   xmlns:sodipodi="http://sodipodi.sourceforge.net/DTD/sodipodi-0.dtd"
   xmlns="http://www.w3.org/2000/svg"
   xmlns:svg="http://www.w3.org/2000/svg"><sodipodi:namedview
     id="namedview1"
     pagecolor="#ffffff"
     bordercolor="#000000"
     borderopacity="0.25"
     inkscape:showpageshadow="2"
     inkscape:pageopacity="0.0"
     inkscape:pagecheckerboard="0"
     inkscape:deskcolor="#d1d1d1"
     inkscape:document-units="mm"
     inkscape:zoom="5.296875"
     inkscape:cx="-5.4749262"
     inkscape:cy="-9.0619469"
     inkscape:window-width="1440"
     inkscape:window-height="878"
     inkscape:window-x="-6"
     inkscape:window-y="-6"
     inkscape:window-maximized="1"
     inkscape:current-layer="layer1" /><defs
     id="defs1" /><g
     inkscape:label="Ebene 1"
     inkscape:groupmode="layer"
     id="layer1"><text
       xml:space="preserve"
       style="font-weight:bold;font-size:3.175px;line-height:0.9;font-family:'Duper Pro';-inkscape-font-specification:'Duper Pro, Bold';letter-spacing:0.134937px;fill:#2e2413;stroke-width:2.558;stroke-linecap:round;stroke-linejoin:round;paint-order:markers stroke fill"
       x="5.8941984"
       y="2.4850543"
       id="text4"><tspan
         sodipodi:role="line"
         id="tspan4"
         style="font-style:normal;font-variant:normal;font-weight:normal;font-stretch:normal;line-height:0.9;font-family:'Roboto medium';-inkscape-font-specification:'Roboto medium, ';letter-spacing:0.134937px;fill:#8a6f91;stroke-width:2.558"
         x="5.8941984"
         y="2.4850543">L</tspan><tspan
         sodipodi:role="line"
         style="font-style:normal;font-variant:normal;font-weight:normal;font-stretch:normal;line-height:0.9;font-family:'Roboto medium';-inkscape-font-specification:'Roboto medium, ';letter-spacing:0.134937px;fill:#8a6f91;stroke-width:2.558"
         x="5.8941984"
         y="5.3933539"
         id="tspan7">C</tspan><tspan
         sodipodi:role="line"
         style="font-style:normal;font-variant:normal;font-weight:normal;font-stretch:normal;line-height:0.9;font-family:'Roboto medium';-inkscape-font-specification:'Roboto medium, ';letter-spacing:0.134937px;fill:#8a6f91;stroke-width:2.558"
         x="5.8941984"
         y="8.3016539"
         id="tspan8">A</tspan></text><g
       inkscape:label="Image"
       id="g1"
       transform="matrix(0.06241022,0,0,0.06241022,0.10953267,1.2459662)"><path
         style="fill:#000000"
         d="m 47.174987,45.383532 17.3174,-8.718416"
         id="path14" /><path
         style="fill:#470b6d;fill-opacity:1;stroke:#3f0a62;stroke-width:1.00157;stroke-linecap:round;stroke-linejoin:round;stroke-dasharray:none;stroke-opacity:1"
         d="m 47.738861,46.398689 18.5,-9.733573 v 37.85942 l 23.5,-12.420756 v 14.451072 l -42,22.034899 z"
         id="path15"
         sodipodi:nodetypes="ccccccc" /><path
         style="fill:#f9c303;fill-opacity:1;stroke:#e6c427;stroke-width:1.00157;stroke-linecap:round;stroke-linejoin:round;stroke-dasharray:none;stroke-opacity:1"
         d="m 1.5278598,25.689013 0.06272,51.972692 10.6510352,4.804949 -0.119431,-30.335308 6.538812,33.291209 9.76343,4.598069 5.911803,-27.857128 0.328433,30.783171 10.748732,5.135506 L 45.293963,46.309117 28.63343,38.426714 23.587498,63.566802 18.004129,33.53007 Z"
         id="path16"
         sodipodi:nodetypes="cccccccccccccc" /><path
         style="fill:#f9c303;fill-opacity:1;stroke:#572b25;stroke-width:1.00157;stroke-linejoin:round;stroke-dasharray:none;stroke-opacity:1;paint-order:markers stroke fill"
         d="m 73.041903,47.411726 1.691636,-1.399684 1.921132,10.267387 1.642167,-12.00275 1.910886,-1.73174 -2.746898,16.750106 -2.060174,1.701883 z"
         id="path18"
         sodipodi:nodetypes="cccccccc" /><path
         style="fill:#f9c303;fill-opacity:1;stroke:#572b25;stroke-width:1.00157;stroke-linecap:round;stroke-linejoin:round;stroke-dasharray:none;stroke-opacity:1;paint-order:markers stroke fill"
         d="m 82.157833,40.74536 v -3.224619 c 0,0 2.806721,-4.177219 4.747356,-3.642625 1.380921,0.380407 1.983651,3.660834 0.985304,7.524111 -0.950568,3.678383 -3.433623,10.868162 -3.433623,10.868162 l 4.120347,-2.388607 -0.149288,3.612768 -6.628384,3.732198 -0.02986,-3.971059 c 0,0 3.608414,-8.618927 3.821771,-9.315567 0.213358,-0.696639 0.713541,-1.954616 1.074874,-4.209919 0.211826,-1.322132 -0.597478,-1.656801 -1.194304,-1.761598 -1.26301,-0.221772 -3.314192,2.776755 -3.314193,2.776755 z"
         id="path19"
         sodipodi:nodetypes="ccssccccccssc" /><path
         style="fill:#9a1842;fill-opacity:1;stroke:#8e2e50;stroke-width:1.00157;stroke-linecap:round;stroke-linejoin:round;stroke-dasharray:none;stroke-opacity:1;paint-order:markers stroke fill"
         d="m 26.052827,23.899352 c 0.506701,-0.380025 3.209101,-2.11125 3.209101,-2.11125 l -10.260676,-3.0402 c 0,0 -10.6929803,-1.658252 -12.8364014,2.11125 -0.7622558,1.340532 0.5760951,3.239476 1.6890001,4.306951 2.3232163,2.22838 9.3415183,5.080216 14.6943013,6.207075 6.887052,1.449851 13.083372,-1.229161 18.494552,-0.464475 2.414039,0.341142 6.32414,1.9041 5.9115,4.30695 -0.350478,2.040873 -3.883019,1.786671 -5.953725,1.773451 -2.742223,-0.01751 -7.853851,-2.449051 -7.853851,-2.449051 l -2.660175,2.449051 c 0,0 8.890733,3.401515 13.554226,4.180275 2.91982,0.487583 11.21112,1.362068 12.667501,-2.7024 0.983201,-2.743917 -3.060119,-5.167597 -5.447025,-6.840451 -4.34106,-3.042415 -9.795959,-4.577176 -15.074326,-5.067 -5.501316,-0.510514 -10.493527,1.221985 -16.890002,0.886725 -1.83571,-0.09622 -4.558163,-1.505126 -4.391401,-3.335776 0.133052,-1.460592 2.469731,-1.818401 3.926926,-1.984575 2.4624,-0.280805 7.220475,1.77345 7.220475,1.77345 z"
         id="path20"
         sodipodi:nodetypes="cccasssaaccsaassaac" /><path
         style="fill:#9a1842;fill-opacity:1;stroke:#8f2e50;stroke-width:1.00157;stroke-linecap:round;stroke-linejoin:round;stroke-dasharray:none;stroke-opacity:1;paint-order:markers stroke fill"
         d="m 57.658656,7.7605617 c 0.506701,-0.380025 3.209101,-2.11125 3.209101,-2.11125 l -10.260676,-3.0402 c 0,0 -10.69298,-1.65825194 -12.836401,2.11125 -0.762256,1.340532 0.576095,3.239476 1.689,4.306951 2.323216,2.2283793 9.341518,5.0802153 14.694301,6.2070743 6.887052,1.449851 13.083372,-1.229161 18.494552,-0.464475 2.414039,0.341142 6.32414,1.9041 5.9115,4.30695 -0.350478,2.040873 -3.883019,1.786671 -5.953725,1.773451 -2.742223,-0.01751 -7.853851,-2.449051 -7.853851,-2.449051 l -2.660175,2.449051 c 0,0 8.890733,3.401515 13.554226,4.180275 2.91982,0.487583 11.21112,1.362068 12.667501,-2.7024 0.983201,-2.743917 -3.060119,-5.167597 -5.447025,-6.840451 -4.34106,-3.042415 -9.795959,-4.577176 -15.074326,-5.067 -5.501316,-0.5105133 -10.493527,1.221985 -16.890002,0.886725 -1.83571,-0.09622 -4.558163,-1.5051253 -4.391401,-3.3357753 0.133052,-1.460592 2.469731,-1.818401 3.926926,-1.984575 2.4624,-0.280805 7.220475,1.77345 7.220475,1.77345 z"
         id="path20-7"
         sodipodi:nodetypes="cccasssaaccsaassaac" /><path
         style="fill:#9a1842;fill-opacity:1;stroke:#8f2e50;stroke-width:1.00157;stroke-linecap:round;stroke-linejoin:round;stroke-dasharray:none;stroke-opacity:1;paint-order:markers stroke fill"
         d="m 40.958254,18.747902 -10.978501,-9.7539761 4.2225,-2.4490503 18.367877,15.1587764 18.705677,8.825026 -3.589126,2.1957 -16.678876,-8.022751 -34.962303,-8.7828 c 0,0 3.80025,-2.195701 4.349175,-2.153476 0.548925,0.04222 20.563577,4.982551 20.563577,4.982551 z"
         id="path21" /></g></g></svg>
